<svg xmlns="http://www.w3.org/2000/svg" xmlns:xlink="http://www.w3.org/1999/xlink" viewBox="0 0 284.22 556.72"><defs><style>.cls-1{fill:none;}.cls-2{clip-path:url(#clip-path);}.cls-3{fill:#8d734a;}</style><clipPath id="clip-path" transform="translate(0 0)"><rect class="cls-1" width="284.22" height="556.72"/></clipPath></defs><title>BM-LogoTypo block-2016-gold</title><g id="Layer_2" data-name="Layer 2"><g id="svg2"><g id="BM-LogoTypo_block-2016-gold" data-name="BM-LogoTypo block-2016-gold"><g class="cls-2"><g class="cls-2"><path class="cls-3" d="M237,142a11,11,0,0,1,4.51-8.91,99.35,99.35,0,0,0-22.8-55,11.06,11.06,0,0,1-12.62-12.62,99.35,99.35,0,0,0-55-22.8,11.06,11.06,0,0,1-17.82,0,99.34,99.34,0,0,0-55,22.8A11.06,11.06,0,0,1,65.54,78.08a99.35,99.35,0,0,0-22.8,55,11.06,11.06,0,0,1,0,17.82A99.35,99.35,0,0,0,59.9,198.57c7-6.43,14.52-12.6,17.75-14.69,6.44-4.16,14.78-8.68,18.71-10.68C90.77,174.94,79,174.43,76.54,164c5.42,3.1,13.57,3,11.19-3.64a11.07,11.07,0,0,1-6.66.9c-5.31-1.24-6.43-8.89-6.43-8.89,5,3.24,9.28.65,11.53-2.93-3-2.94-7.56.08-7.82.43.59-1,5.16-8.07,9.37-7-.5-2.37-2.61-3.69-6.87-1.87-2.74,1.17-6.66,5.44-7.44,8.31C67,138.41,85.5,137.13,67,126.83l10.91.82c-1.49-1.36-4.35-2.56-7.11-7.11-2-3.29-2.42-7.35-3-12,12,10.39,20.66,1.93,22.11-1.43-1.53,1.62-3.82,2.76-7.9,1-6.25-2.63-4.62-9.85-4.62-9.85,2.91,4.91,13.44,2,15.91-1.48-2.81.12-6.09.26-9.17-2.68-2.89-2.76-5.89-8.82-3.61-14.86,2.33,6.06,12.82,9,20.45,7-6,.6-11.08-7.78-11.08-7.78s1.93,2.18,6.42,3c2,.37,3.84.23,4.73-.57a13.21,13.21,0,0,1-3.15-3.58,21,21,0,0,1-2.6-10.5c5.29,7.35,13.93,8.41,19,6.51,9.42-3.54,21.48.23,21.88,10.34a.42.42,0,0,1-.54.42c-17.08-5.07-33.67,6-40.67,19.91-15.54,31.51,11.3,54.85,20.38,61.45a.82.82,0,0,0,.8.09h0c.58-.25,1-.45,1.34-.62a.41.41,0,0,0,0-.73,20.67,20.67,0,0,1-3.21-2.17c-8.83-6.73-28.07-29.18-14.53-56.61,6.41-12.73,21.85-23.93,36.31-20.33a.74.74,0,0,0,.75-.24c2.51-3,6.8-4.91,11.8-6.21,5.71-1.48-5.82,5.74-3.41,8.93.79,1,8.74,4.72,10.81,8.42,1.28,1.87,2.84,8.83,2.84,8.83s.61,2.54,1.45,5a25.87,25.87,0,0,0,1.7,3.55l1.06,1.91c2.54,4.29,6.6,6.18,7.11,10.7.31,2.71-1.67,5-3.79,6.49-2-1.54-3.24-4.82-6-4.3-.71,1.57.93,5,2.13,6.6a9,9,0,0,1-6.68,0,.3.3,0,0,1-.21-.24c-.83-5-2.31-10.65-5.85-13-2.12-1.4-6.5.09-9.26-1.49-3-1.74-3.91-5-5.93-8.45,0,0-6.44,7.82,9.69,17.84,4.8,3,21.26,12.52,20.28,22.29-.38,3.76-3.38,6.57-5.41,8.05a.17.17,0,0,0,.17.3l14.13-6.24a.19.19,0,0,0-.11-.36l-8.4,1.76a.18.18,0,0,1-.17-.29,10.56,10.56,0,0,0,1.92-4.26c.55-3.15-.43-5.41-2.79-7.78-1.23-1.23,3.06-3.63,4.33-5.47,1.41-2,4.74-8.47,4.75-8.48.67-1.47,2.38-3.68,4.1-3.84,4.08-.37,8.92.43,12.81,1.27,8.34,1.81,14.18,4.77,21.45,8.38,3.24,1.6,11.68,5,12.12,5.09-1.33.2-1.32,1-1.31,1.14.19,1.89,5.15,2.71,6.13,4.17,2.36,3.53,3.12,5,5.53,8.75-5.57,2.4-9.56,1.42-14.61-1.07.64-7-7.89-12.71-9.9-5.07-6-7-14.56-12.43-26.08-11.87a65.58,65.58,0,0,0-5.81,16.45c2.61-1,5.36-1.86,8.26-2.87,2.52-.88,9.14-2.59,9.15-2.59,2.16-.32,4.52,0,5.27,1.74,1.76,4.06,1.64,9.49,2.09,13.77a91.72,91.72,0,0,1-.4,24.62c-.55,3.86-1.68,12.82-1.58,13.29a1.78,1.78,0,0,0-1-.13c-2.09.49-1.12,6.2-2.32,7.73-2.82,3.61-4.1,4.9-7.1,8.63-4.35-4.9-4.69-9.32-3.85-15.34,7.37-1.7,10.37-12.39,1.86-11.86,5.13-8.47,7.83-19.13,3.35-30.76-13.15,10.25-27,22.92-35.23,37.44-3,5.18-5.37,1.81-13.06-.61a34.49,34.49,0,0,0-4-1c-6.57-1.12-11.79,29.46-14,38a32.56,32.56,0,0,1-2.75,7.18,99.33,99.33,0,0,0,11.24,1.64,11.06,11.06,0,0,1,17.82,0,99.35,99.35,0,0,0,55-22.8A11.06,11.06,0,0,1,218.68,206a99.34,99.34,0,0,0,22.8-55A11,11,0,0,1,237,142M157,89.2c-1.5,1.72-3.11,1.15-5.36.16-1-.43-3.35-1.38-4.78-1.94A.23.23,0,0,1,147,87c4.42-.23,9.72-3.23,12.84-6.65a.22.22,0,0,1,.37.2c-.33,2.61-2,7.32-3.14,8.68m-8.25,9.32-2.67-3.07c.3-.19.68,0,1,.25q2.74,2.1,5.45,4.25a6.2,6.2,0,0,1,1.36,1.33,3.11,3.11,0,0,1-.31,3.56,2,2,0,0,1-1.74.76,1.92,1.92,0,0,1-1.38-1.05,3.28,3.28,0,0,1-.29-1.76,9.74,9.74,0,0,0,.12-1.54,5,5,0,0,0-1.51-2.73M117,238.61q-2.06-.53-4.09-1.16c8.32-11.54,8.28-34.93,20-42.21a.3.3,0,0,1,.38.45c-7.45,7.64-8.05,30.11-16.32,42.92m31.25-48.29c1-1.59,5.15-5.67,7.87-8.79,5.5-6.33,18.76-17.48,26.23-21.07a.3.3,0,0,1,.33.5,100.86,100.86,0,0,0-15.95,14.32c-7.87,8.85-11.74,14.57-13.6,16.78a2.27,2.27,0,0,1-2.23.75l-1.78-.4a1.38,1.38,0,0,1-.86-2.08" transform="translate(0 0)"/><path class="cls-3" d="M113.12,19.74a83.06,83.06,0,0,0-25.36-8.93A83.06,83.06,0,0,0,76.14,35.06a88.26,88.26,0,0,1,25.39,9,88.26,88.26,0,0,1,11.59-24.31" transform="translate(0 0)"/><path class="cls-3" d="M171.11,264.33a83.06,83.06,0,0,0,25.36,8.93A83,83,0,0,0,208.08,249a88.3,88.3,0,0,1-25.38-9,88.26,88.26,0,0,1-11.59,24.3" transform="translate(0 0)"/><path class="cls-3" d="M19.82,171a83,83,0,0,0-8.93,25.36A83.23,83.23,0,0,0,35.14,208a88.29,88.29,0,0,1,9-25.37A88.26,88.26,0,0,1,19.82,171" transform="translate(0 0)"/><path class="cls-3" d="M264.41,113a83,83,0,0,0,8.93-25.36,83.23,83.23,0,0,0-24.25-11.6,88.29,88.29,0,0,1-9,25.37A88.26,88.26,0,0,1,264.41,113" transform="translate(0 0)"/><path class="cls-3" d="M76.14,249a83,83,0,0,0,11.62,24.25,83,83,0,0,0,25.36-8.93A88.28,88.28,0,0,1,101.52,240a88.27,88.27,0,0,1-25.38,9" transform="translate(0 0)"/><path class="cls-3" d="M208.08,35.06a83,83,0,0,0-11.62-24.24,83,83,0,0,0-25.36,8.93A88.27,88.27,0,0,1,182.7,44a88.29,88.29,0,0,1,25.38-9" transform="translate(0 0)"/><path class="cls-3" d="M240.1,182.62a88.28,88.28,0,0,1,9,25.37,83.23,83.23,0,0,0,24.25-11.6A83,83,0,0,0,264.41,171a88.29,88.29,0,0,1-24.3,11.59" transform="translate(0 0)"/><path class="cls-3" d="M44.12,101.45a88.29,88.29,0,0,1-9-25.37,83.23,83.23,0,0,0-24.25,11.6A83,83,0,0,0,19.82,113a88.29,88.29,0,0,1,24.31-11.59" transform="translate(0 0)"/><path class="cls-3" d="M131.05,36.12a11.06,11.06,0,0,1,8.44-10.74l1.72-17a.9.9,0,0,1,.9-.86h0a.9.9,0,0,1,.9.86l1.72,17a11.06,11.06,0,0,1,8.44,10.74c0,.19,0,.38,0,.57a105.35,105.35,0,0,1,22.18,4.75,81.71,81.71,0,0,0-6.43-13.68q-1.46-2.48-3.1-4.85-1.75-2.54-3.68-5a83,83,0,0,0-20-18,83,83,0,0,0-20,18q-1.93,2.4-3.68,5-1.63,2.37-3.1,4.85a81.71,81.71,0,0,0-6.43,13.68,105.37,105.37,0,0,1,22.18-4.75c0-.19,0-.38,0-.57" transform="translate(0 0)"/><path class="cls-3" d="M153.17,248a11.06,11.06,0,0,1-8.44,10.74l-1.72,17a.9.9,0,0,1-.9.86h0a.9.9,0,0,1-.9-.86l-1.72-17A11.06,11.06,0,0,1,131.05,248c0-.19,0-.38,0-.57a105.3,105.3,0,0,1-22.18-4.75,81.71,81.71,0,0,0,6.43,13.68q1.46,2.48,3.1,4.85,1.75,2.55,3.69,5a83,83,0,0,0,20,18,83,83,0,0,0,20-18q1.93-2.4,3.68-5,1.63-2.37,3.1-4.85a81.71,81.71,0,0,0,6.43-13.68,105.41,105.41,0,0,1-22.18,4.75c0,.19,0,.38,0,.57" transform="translate(0 0)"/><path class="cls-3" d="M36.2,153.09a11.06,11.06,0,0,1-10.74-8.44l-17-1.72a.9.9,0,0,1-.86-.9v0a.9.9,0,0,1,.86-.9l17-1.72A11.06,11.06,0,0,1,36.2,131h.57a105.29,105.29,0,0,1,4.75-22.18,81.71,81.71,0,0,0-13.68,6.43q-2.48,1.46-4.85,3.1-2.55,1.75-5,3.68a83,83,0,0,0-18,20,83,83,0,0,0,18,20q2.4,1.93,5,3.68,2.37,1.63,4.85,3.1a81.71,81.71,0,0,0,13.68,6.43,105.29,105.29,0,0,1-4.75-22.18H36.2" transform="translate(0 0)"/><path class="cls-3" d="M248,131a11.06,11.06,0,0,1,10.74,8.44l17,1.72a.9.9,0,0,1,.86.9v0a.9.9,0,0,1-.86.9l-17,1.72A11.06,11.06,0,0,1,248,153.09h-.57a105.29,105.29,0,0,1-4.75,22.18,81.71,81.71,0,0,0,13.68-6.43q2.48-1.46,4.85-3.1,2.55-1.75,5-3.68a83,83,0,0,0,18-20,83,83,0,0,0-18-20q-2.4-1.93-5-3.68-2.37-1.63-4.85-3.1a81.71,81.71,0,0,0-13.68-6.43A105.29,105.29,0,0,1,247.46,131H248" transform="translate(0 0)"/><path class="cls-3" d="M75,224.74a11.06,11.06,0,0,1-13.56,1.63L48.25,237.18a.9.9,0,0,1-1.24,0h0a.9.9,0,0,1,0-1.24l10.81-13.24a11.06,11.06,0,0,1,1.63-13.56l.41-.39a106.05,106.05,0,0,1-12.33-19,81.85,81.85,0,0,0-5.13,14.23q-.72,2.79-1.24,5.61-.56,3-.9,6.12a83.05,83.05,0,0,0,1.46,26.85,82.92,82.92,0,0,0,17.86,1.95h0a83.29,83.29,0,0,0,9-.48q3.07-.33,6.11-.89a82.21,82.21,0,0,0,16-4.66q2-.8,3.91-1.71a106,106,0,0,1-19.06-12.34l-.38.4" transform="translate(0 0)"/><path class="cls-3" d="M209.17,59.33a11.06,11.06,0,0,1,13.56-1.63L236,46.89a.9.9,0,0,1,1.24,0h0a.9.9,0,0,1,0,1.24L226.45,61.41A11.06,11.06,0,0,1,224.81,75l-.41.39a106.05,106.05,0,0,1,12.33,19,81.83,81.83,0,0,0,5.13-14.23q.72-2.79,1.24-5.61.56-3,.9-6.12a83.05,83.05,0,0,0-1.46-26.84,83.24,83.24,0,0,0-26.85-1.46q-3.08.33-6.11.89a82.21,82.21,0,0,0-16,4.66q-2,.8-3.91,1.71a106,106,0,0,1,19.06,12.34l.39-.41" transform="translate(0 0)"/><path class="cls-3" d="M243.1,209.51q-.52-2.82-1.24-5.61a81.83,81.83,0,0,0-5.13-14.23,106.05,106.05,0,0,1-12.33,19l.4.38a11.06,11.06,0,0,1,1.63,13.56l10.81,13.24a.9.9,0,0,1,0,1.24h0a.9.9,0,0,1-1.24,0l-13.24-10.81a11.06,11.06,0,0,1-13.56-1.63l-.38-.4a106,106,0,0,1-19.06,12.34q1.93.9,3.91,1.71a82.2,82.2,0,0,0,16,4.66q3,.56,6.11.9a83.56,83.56,0,0,0,9,.48h0a83,83,0,0,0,17.86-1.95A83.07,83.07,0,0,0,244,215.62q-.33-3.07-.9-6.12" transform="translate(0 0)"/><path class="cls-3" d="M59.41,75a11.06,11.06,0,0,1-1.63-13.56L47,48.17a.9.9,0,0,1,0-1.24h0a.9.9,0,0,1,1.24,0L61.49,57.7A11.06,11.06,0,0,1,75,59.33l.39.4A106,106,0,0,1,94.49,47.4q-1.93-.9-3.91-1.71a82.29,82.29,0,0,0-16-4.66q-3-.56-6.11-.89A83.23,83.23,0,0,0,41.68,41.6a83.06,83.06,0,0,0-1.46,26.85q.33,3.07.9,6.12.52,2.82,1.24,5.61A81.66,81.66,0,0,0,47.49,94.4a106.05,106.05,0,0,1,12.33-19l-.4-.39" transform="translate(0 0)"/><path class="cls-3" d="M40.61,137.78H39.35L36,145.57v-7.79H34.51v6.06h0l-4-6.06H28.62v8.15h1.45v-6.26h0l4,6.26h3.31l.74-1.87H41.7l.76,1.87h1.66Zm-1.95,5,1.28-3.32,1.25,3.32Z" transform="translate(0 0)"/><path class="cls-3" d="M221.48,63.09h-1.26l-3.39,7.79V63.09h-1.45v6.06h0l-4-6.06h-1.92v8.15h1.45V65h0l4,6.26h3.31l.74-1.87h3.54l.76,1.87H225Zm-1.95,5,1.28-3.32,1.26,3.32Z" transform="translate(0 0)"/><path class="cls-3" d="M221.48,212.79h-1.26l-3.39,7.79v-7.79h-1.45v6.06h0l-4-6.06h-1.92v8.15h1.45v-6.26h0l4,6.26h3.31l.74-1.87h3.54l.76,1.87H225Zm-1.95,5,1.28-3.32,1.26,3.32Z" transform="translate(0 0)"/><polygon class="cls-3" points="239.45 137.81 241.67 137.81 243.84 143.53 246.04 137.81 248.23 137.81 248.23 145.97 246.85 145.97 246.85 139.19 246.83 139.19 244.35 145.97 243.34 145.97 240.86 139.19 240.84 139.19 240.84 145.97 239.45 145.97 239.45 137.81"/><path class="cls-3" d="M252.7,137.6a4.05,4.05,0,0,1,4.34,4.27,4.16,4.16,0,0,1-4.34,4.3,4.29,4.29,0,1,1,0-8.57m0,7.26a2.8,2.8,0,0,0,2.81-3,2.81,2.81,0,1,0-5.61,0,2.8,2.8,0,0,0,2.8,3" transform="translate(0 0)"/><polygon class="cls-3" points="141.68 31.94 143.89 31.94 146.06 37.66 148.26 31.94 150.45 31.94 150.45 40.1 149.07 40.1 149.07 33.33 149.05 33.33 146.57 40.1 145.56 40.1 143.08 33.33 143.06 33.33 143.06 40.1 141.68 40.1 141.68 31.94"/><path class="cls-3" d="M137.13,31.74A4.05,4.05,0,0,1,141.47,36a4.16,4.16,0,0,1-4.34,4.3,4.08,4.08,0,0,1-4.31-4.25,4.1,4.1,0,0,1,4.31-4.32m0,7.26A2.8,2.8,0,0,0,140,36a2.81,2.81,0,1,0-5.61,0,2.8,2.8,0,0,0,2.8,3" transform="translate(0 0)"/><path class="cls-3" d="M145.75,244.47h-1.26L141.21,252l-1.79-3a2.09,2.09,0,0,0,1.89-2.21c0-1.83-1.47-2.34-3-2.34h-2.83v8.15h1.45v-3.46h1.06l1.89,3.46h2.73l.74-1.87h3.54l.76,1.87h1.66Zm-8.86,3.45v-2.21h1.26c.75,0,1.65.12,1.65,1.08s-1,1.13-1.77,1.13Zm6.92,1.59,1.28-3.32,1.26,3.32Z" transform="translate(0 0)"/><polygon class="cls-3" points="63.15 67.52 60.09 62.86 61.91 62.86 63.91 66.11 65.94 62.86 67.67 62.86 64.61 67.52 64.61 71.01 63.15 71.01 63.15 67.52"/><path class="cls-3" d="M69.37,62.86h1.25L74.14,71H72.48l-.76-1.87H68.19L67.45,71H65.82Zm1.84,5L70,64.59,68.68,67.9Z" transform="translate(0 0)"/><polygon class="cls-3" points="63.15 218.26 60.09 213.6 61.91 213.6 63.91 216.84 65.94 213.6 67.67 213.6 64.61 218.26 64.61 221.75 63.15 221.75 63.15 218.26"/><path class="cls-3" d="M69.37,213.6h1.25l3.51,8.15H72.48l-.76-1.87H68.19l-.74,1.87H65.82Zm1.84,5L70,215.32l-1.28,3.32Z" transform="translate(0 0)"/><path class="cls-3" d="M.18,397.91H7.53V324.64H.18v-2H34.34c12.28,0,25.56,5.48,25.56,18.21,0,11.74-12,16.67-22.49,17.55v.22c15,0,26.87,7,26.87,20.18,0,12.07-10.75,21.06-31.15,21.06H.18ZM23.81,358.2h5.92c6.58,0,13.71-4.28,13.71-15.46,0-12.72-4.5-18.1-13.82-18.1H23.81Zm0,39.71h5c11.07,0,17-5.59,17-19,0-11.62-5.59-18.75-15.36-18.75H23.81Z" transform="translate(0 0)"/><path class="cls-3" d="M99.61,399.88V363.25c0-7.68-3.29-9-6.47-9-6.14,0-11.62,8-11.62,13.6v30.06h7.56v2H66.37V324.64H58.8v-2h6.91c10.71,0,13.82-1.1,15.79-4.39V360.5h.22c3-6.36,10.2-10.2,17.55-10.2,10.42,0,15.46,5.15,15.46,17v30.6h7.57v2Z" transform="translate(0 0)"/><path class="cls-3" d="M268.08,340.87A8.88,8.88,0,1,0,259.2,332a8.85,8.85,0,0,0,8.88,8.88" transform="translate(0 0)"/><path class="cls-3" d="M175.45,324.64h-7.57v-2h8c7.78,0,12.72-1.1,14.7-4.5v55.72l11.74-9.32c4.72-3.73,9-7.46,9-9.1s-2.52-1.87-4.72-1.87h-2.74v-2h21.55c11.08,0,19-12,19-23.58h2v23.58h16c4.5,0,11-1.1,13.27-4v50.23h7.57v2H260.54v-2h0V353.59H246.36v37.29c0,3.62,1.43,5.7,4.28,5.7s4.5-2.63,5.81-4.61l1.42.77c-3.4,5.7-7.9,8.45-14.59,8.45-3.07,0-12.06-2.08-12.06-12.5v-35.1h-4.55c-5,0-8.12,1.53-12.62,4.82l-9.32,6.8,20.51,32.68h6.58v2h-30.6v-2h6.58L193.66,374l-3.07,2.3v21.6h5.7v2H175.45Z" transform="translate(0 0)"/><path class="cls-3" d="M172.11,390.45c0,2.85-1.21,6.14-3.84,6.14-2,0-2.52-2.09-2.52-5.49V365.88c0-12.51-11.73-15.58-23-15.58-8.79,0-15.67,3.45-18.06,8a8.3,8.3,0,1,0,8-4c1.73-1.43,6.34-2,9.29-2,8.23,0,9.33,4.06,9.33,10.64v9.21l-10.75.88c-10,.77-20.84,3.4-20.84,14.81,0,9.54,8.56,13.38,17,13.38,4.28,0,11.85-1.64,14.7-6.91,2,4.61,6,6.91,11,6.91,7.13,0,11.73-4.28,11.73-10.75Zm-20.84-3.62c-.22,5.81-3.51,11.08-8.66,11.08-7.46,0-7.79-6.8-7.79-12.5s.66-9.65,7.79-10.42l8.66-.88Z" transform="translate(0 0)"/><path class="cls-3" d="M138.25,479.13c0,2.85-1.21,6.14-3.84,6.14-2,0-2.52-2.09-2.52-5.49V454.56c0-12.51-11.73-15.58-23-15.58-8.79,0-15.68,3.45-18.06,8a8.3,8.3,0,1,0,8-4c1.73-1.43,6.33-2,9.29-2,8.23,0,9.33,4.06,9.33,10.64v9.21l-10.75.88c-10,.77-20.84,3.4-20.84,14.81,0,9.54,8.56,13.38,17,13.38,4.28,0,11.85-1.64,14.7-6.91,2,4.61,6,6.91,11,6.91,7.13,0,11.74-4.28,11.74-10.75Zm-20.84-3.62c-.22,5.81-3.51,11.08-8.67,11.08-7.46,0-7.79-6.8-7.79-12.5s.66-9.65,7.79-10.42l8.67-.88Z" transform="translate(0 0)"/><polygon class="cls-3" points="89.07 413.32 89.07 411.34 64.16 411.34 45.62 464.32 45.4 464.32 27.19 411.34 0.18 411.34 0.18 413.32 7.53 413.32 7.53 486.58 0.18 486.58 0.18 488.56 21.62 488.56 21.62 486.58 10.08 486.58 10.08 413.98 10.3 413.98 36.52 488.56 39.48 488.56 65.03 415.29 65.25 415.29 65.25 486.58 55.82 486.58 55.82 488.56 89.07 488.56 89.07 486.58 81.54 486.58 81.54 413.32 89.07 413.32"/><path class="cls-3" d="M282.25,479.22c0,2.85-1.21,6.14-3.84,6.14-2,0-2.53-2.08-2.53-5.49V454.65c0-12.5-11.73-15.58-23-15.58-8.5,0-15.21,3.23-17.8,7.53-1.65-4.57-6-7.4-12.07-7.4-12.38,0-12,7.41-12.08,7.34v1.11h-.22c-2.52-5.38-6.68-8.45-13.6-8.45a21.68,21.68,0,0,0-17.16,7.86c0-.15,0-.3,0-.45a8.27,8.27,0,0,0-1.52-4.79,7.34,7.34,0,0,0-3-2.62,8.23,8.23,0,0,0-3.73-.89h-.54a15.73,15.73,0,0,0-14.48,10.31h-.22V436.9c-2.31,2.85-8.77,3.4-13.27,3.4h-9.21v2h7.57v46.29h23.58v-2h-8.44v-28c0-7.9,2.31-13.6,8.26-16.81a8.29,8.29,0,0,0,.95,10.75,6.78,6.78,0,0,0,1.83,1.36,8.3,8.3,0,0,0,8.31-.21,31.23,31.23,0,0,0-2.25,11.83c0,15.25,12.18,24.57,23.15,24.57,7.24,0,11.19-3.07,13.81-8h.22v20c0,7.17-6.41,11.6-15.37,11.6-3.59,0-10.28-.75-11.7-2.74a8.3,8.3,0,1,0-8.3-4.11c2.72,5.08,11.07,10.1,20.84,10.1,12.32,0,30.32-4.45,30.32-18.08V450.21c0-3.71.6-6,2.75-6,2.85,0,4.07,4,4.21,7.08A8.3,8.3,0,1,0,242.8,443c1.73-1.43,6.34-2,9.29-2,8.22,0,9.32,4.06,9.32,10.64v9.21l-10.75.88c-10,.77-20.84,3.4-20.84,14.81,0,9.54,8.55,13.38,17,13.38,4.28,0,11.84-1.65,14.69-6.91,2,4.61,6,6.91,11,6.91,7.13,0,11.73-4.28,11.73-10.75Zm-71.35-4.67c-.1,6.29-4.25,12.92-11.4,12.92-6.58,0-9.32-5-9.32-16.23V455.44c0-7.46,1.86-13.6,8.88-13.6,7.37,0,11.74,7,11.84,13.05Zm50.51,1.05c-.22,5.82-3.5,11.08-8.66,11.08-7.46,0-7.79-6.8-7.79-12.5s.66-9.65,7.79-10.42l8.66-.88Z" transform="translate(0 0)"/><path class="cls-3" d="M15.71,547.68c0,4.65-1.21,9-8,9-4,0-6.88-1.84-7.69-5.85l5.07-1.24a2.58,2.58,0,0,0,2.48,2.2c2.59,0,2.62-2.87,2.62-4.75V531h5.53Z" transform="translate(0 0)"/><path class="cls-3" d="M54.39,546.4c0,5.92-3.62,10.32-10.57,10.32s-10.6-4.39-10.6-10.32V531h5.53v15.21a5.06,5.06,0,1,0,10.1,0V531h5.53Z" transform="translate(0 0)"/><path class="cls-3" d="M84.68,537.11a5.35,5.35,0,0,0-4-1.67c-1.56,0-3.72.71-3.72,2.59,0,4.57,11.56,1.63,11.56,10.42,0,5.6-4.5,8.26-9.68,8.26a11.93,11.93,0,0,1-8.44-3.16l3.94-4.33a6.15,6.15,0,0,0,4.82,2.38c1.81,0,3.83-.85,3.83-2.62,0-4.61-11.77-2.13-11.77-10.5,0-5.35,4.65-8.16,9.58-8.16A11.34,11.34,0,0,1,88.47,533Z" transform="translate(0 0)"/><polygon class="cls-3" points="110.24 535.87 103.08 535.87 103.08 530.98 122.94 530.98 122.94 535.87 115.77 535.87 115.77 556.08 110.24 556.08 110.24 535.87"/><polygon class="cls-3" points="155.59 530.98 161.13 530.98 161.13 550.98 171.37 550.98 171.37 556.08 155.59 556.08 155.59 530.98"/><path class="cls-3" d="M198,530.34c7.83,0,13.54,5.14,13.54,13.19S205.8,556.72,198,556.72s-13.55-5.14-13.55-13.19,5.71-13.19,13.55-13.19m0,21.27c4.72,0,7.8-3.4,7.8-8.08s-3.08-8.08-7.8-8.08-7.8,3.4-7.8,8.08,3.08,8.08,7.8,8.08" transform="translate(0 0)"/><polygon class="cls-3" points="220.59 530.98 226.9 530.98 233.1 547.43 233.18 547.43 239.49 530.98 245.41 530.98 235.06 556.08 230.62 556.08 220.59 530.98"/><polygon class="cls-3" points="261.01 530.98 278.07 530.98 278.07 536.08 266.54 536.08 266.54 540.76 277.43 540.76 277.43 545.87 266.54 545.87 266.54 550.98 278.71 550.98 278.71 556.08 261.01 556.08 261.01 530.98"/></g></g></g></g></g></svg>